# xmcd
#
# Track frame offsets:
#	150
#	13457
#	66915
#	73155
#	76703
#	84214
#	89274
#	110598
#	136355
#	178323
#	192126
#	215084
#
# Disc length: 2885 seconds
# Revision: 0
# Processed by: cddbd v1.5.2PL0 Copyright (c) Steve Scherf et al.
# Submitted via: dBpowerAMP V12.0
#
DISCID=ab0b430c
DTITLE=9.6.1944 - 1.8.1944 - Tagebuch CD8
DYEAR=1900
DGENRE=
TTITLE0=185
TTITLE1=186
TTITLE2=187
TTITLE3=188
TTITLE4=189
TTITLE5=190
TTITLE6=191
TTITLE7=192
TTITLE8=193
TTITLE9=194
TTITLE10=195
TTITLE11=196
EXTD=
EXTT0=
EXTT1=
EXTT2=
EXTT3=
EXTT4=
EXTT5=
EXTT6=
EXTT7=
EXTT8=
EXTT9=
EXTT10=
EXTT11=
PLAYORDER=
